<svg xmlns="http://www.w3.org/2000/svg" width="900" height="700" viewBox="0 0 900 700">
<rect width="100%" height="100%" fill="#f8fafc"/>
<text x="76" y="42" font-family="Arial" font-size="24" font-weight="700" fill="#0f172a">Rev A Synthetic Pitch Step Response</text>
<rect x="76" y="85" width="800" height="155" fill="#ffffff" stroke="#cbd5e1"/>
<text x="18" y="167" font-family="Arial" font-size="14" fill="#334155" transform="rotate(-90 18,167)">angle (deg)</text>
<text x="22" y="100" font-family="Arial" font-size="12" fill="#64748b">6.07</text>
<text x="22" y="240" font-family="Arial" font-size="12" fill="#64748b">-0.05</text>
<rect x="76" y="285" width="800" height="155" fill="#ffffff" stroke="#cbd5e1"/>
<text x="18" y="367" font-family="Arial" font-size="14" fill="#334155" transform="rotate(-90 18,367)">error (deg)</text>
<text x="22" y="300" font-family="Arial" font-size="12" fill="#64748b">4.82</text>
<text x="22" y="440" font-family="Arial" font-size="12" fill="#64748b">-1.07</text>
<rect x="76" y="485" width="800" height="155" fill="#ffffff" stroke="#cbd5e1"/>
<text x="18" y="567" font-family="Arial" font-size="14" fill="#334155" transform="rotate(-90 18,567)">PWM (us)</text>
<text x="22" y="500" font-family="Arial" font-size="12" fill="#64748b">1600.00</text>
<text x="22" y="640" font-family="Arial" font-size="12" fill="#64748b">1500.00</text>
<path d="M76.0,238.7 L79.2,238.7 L82.4,238.7 L85.6,238.7 L88.8,238.7 L92.0,238.7 L95.2,238.7 L98.4,238.7 L101.6,238.7 L104.8,238.7 L108.0,238.7 L111.2,238.7 L114.4,238.7 L117.6,238.7 L120.8,238.7 L124.0,238.7 L127.2,238.7 L130.4,238.7 L133.6,238.7 L136.8,238.7 L140.0,238.7 L143.2,238.7 L146.4,238.7 L149.6,238.7 L152.8,238.7 L156.0,238.7 L159.2,238.7 L162.4,238.7 L165.6,238.7 L168.8,238.7 L172.0,238.7 L175.2,238.7 L178.4,238.7 L181.6,238.7 L184.8,238.7 L188.0,238.7 L191.2,238.7 L194.4,238.7 L197.6,238.7 L200.8,238.7 L204.0,238.7 L207.2,238.7 L210.4,238.7 L213.6,238.7 L216.8,238.7 L220.0,238.7 L223.2,238.7 L226.4,238.7 L229.6,238.7 L232.8,238.7 L236.0,112.2 L239.2,112.2 L242.4,112.2 L245.6,112.2 L248.8,112.2 L252.0,112.2 L255.2,112.2 L258.4,112.2 L261.6,112.2 L264.8,112.2 L268.0,112.2 L271.2,112.2 L274.4,112.2 L277.6,112.2 L280.8,112.2 L284.0,112.2 L287.2,112.2 L290.4,112.2 L293.6,112.2 L296.8,112.2 L300.0,112.2 L303.2,112.2 L306.4,112.2 L309.6,112.2 L312.8,112.2 L316.0,112.2 L319.2,112.2 L322.4,112.2 L325.6,112.2 L328.8,112.2 L332.0,112.2 L335.2,112.2 L338.4,112.2 L341.6,112.2 L344.8,112.2 L348.0,112.2 L351.2,112.2 L354.4,112.2 L357.6,112.2 L360.8,112.2 L364.0,112.2 L367.2,112.2 L370.4,112.2 L373.6,112.2 L376.8,112.2 L380.0,112.2 L383.2,112.2 L386.4,112.2 L389.6,112.2 L392.8,112.2 L396.0,112.2 L399.2,112.2 L402.4,112.2 L405.6,112.2 L408.8,112.2 L412.0,112.2 L415.2,112.2 L418.4,112.2 L421.6,112.2 L424.8,112.2 L428.0,112.2 L431.2,112.2 L434.4,112.2 L437.6,112.2 L440.8,112.2 L444.0,112.2 L447.2,112.2 L450.4,112.2 L453.6,112.2 L456.8,112.2 L460.0,112.2 L463.2,112.2 L466.4,112.2 L469.6,112.2 L472.8,112.2 L476.0,112.2 L479.2,112.2 L482.4,112.2 L485.6,112.2 L488.8,112.2 L492.0,112.2 L495.2,112.2 L498.4,112.2 L501.6,112.2 L504.8,112.2 L508.0,112.2 L511.2,112.2 L514.4,112.2 L517.6,112.2 L520.8,112.2 L524.0,112.2 L527.2,112.2 L530.4,112.2 L533.6,112.2 L536.8,112.2 L540.0,112.2 L543.2,112.2 L546.4,112.2 L549.6,112.2 L552.8,112.2 L556.0,112.2 L559.2,112.2 L562.4,112.2 L565.6,112.2 L568.8,112.2 L572.0,112.2 L575.2,112.2 L578.4,112.2 L581.6,112.2 L584.8,112.2 L588.0,112.2 L591.2,112.2 L594.4,112.2 L597.6,112.2 L600.8,112.2 L604.0,112.2 L607.2,112.2 L610.4,112.2 L613.6,112.2 L616.8,112.2 L620.0,112.2 L623.2,112.2 L626.4,112.2 L629.6,112.2 L632.8,112.2 L636.0,112.2 L639.2,112.2 L642.4,112.2 L645.6,112.2 L648.8,112.2 L652.0,112.2 L655.2,112.2 L658.4,112.2 L661.6,112.2 L664.8,112.2 L668.0,112.2 L671.2,112.2 L674.4,112.2 L677.6,112.2 L680.8,112.2 L684.0,112.2 L687.2,112.2 L690.4,112.2 L693.6,112.2 L696.8,112.2 L700.0,112.2 L703.2,112.2 L706.4,112.2 L709.6,112.2 L712.8,112.2 L716.0,112.2 L719.2,112.2 L722.4,112.2 L725.6,112.2 L728.8,112.2 L732.0,112.2 L735.2,112.2 L738.4,112.2 L741.6,112.2 L744.8,112.2 L748.0,112.2 L751.2,112.2 L754.4,112.2 L757.6,112.2 L760.8,112.2 L764.0,112.2 L767.2,112.2 L770.4,112.2 L773.6,112.2 L776.8,112.2 L780.0,112.2 L783.2,112.2 L786.4,112.2 L789.6,112.2 L792.8,112.2 L796.0,112.2 L799.2,112.2 L802.4,112.2 L805.6,112.2 L808.8,112.2 L812.0,112.2 L815.2,112.2 L818.4,112.2 L821.6,112.2 L824.8,112.2 L828.0,112.2 L831.2,112.2 L834.4,112.2 L837.6,112.2 L840.8,112.2 L844.0,112.2 L847.2,112.2 L850.4,112.2 L853.6,112.2 L856.8,112.2 L860.0,112.2 L863.2,112.2 L866.4,112.2 L869.6,112.2 L872.8,112.2 L876.0,112.2" fill="none" stroke="#2563eb" stroke-width="2.5"/>
<path d="M76.0,238.7 L79.2,238.6 L82.4,238.4 L85.6,238.3 L88.8,238.1 L92.0,238.0 L95.2,237.9 L98.4,237.8 L101.6,237.7 L104.8,237.6 L108.0,237.5 L111.2,237.5 L114.4,237.5 L117.6,237.5 L120.8,237.5 L124.0,237.5 L127.2,237.6 L130.4,237.7 L133.6,237.8 L136.8,237.9 L140.0,238.0 L143.2,238.1 L146.4,238.3 L149.6,238.4 L152.8,238.6 L156.0,238.7 L159.2,238.9 L162.4,239.1 L165.6,239.2 L168.8,239.3 L172.0,239.5 L175.2,239.6 L178.4,239.7 L181.6,239.8 L184.8,239.9 L188.0,239.9 L191.2,240.0 L194.4,240.0 L197.6,240.0 L200.8,240.0 L204.0,239.9 L207.2,239.9 L210.4,239.8 L213.6,239.7 L216.8,239.6 L220.0,239.5 L223.2,239.3 L226.4,239.2 L229.6,239.1 L232.8,238.9 L236.0,234.2 L239.2,231.3 L242.4,223.7 L245.6,212.4 L248.8,198.7 L252.0,183.7 L255.2,168.2 L258.4,153.1 L261.6,138.8 L264.8,125.9 L268.0,114.7 L271.2,105.3 L274.4,97.8 L277.6,92.2 L280.8,88.3 L284.0,85.9 L287.2,85.0 L290.4,85.2 L293.6,86.4 L296.8,88.2 L300.0,90.6 L303.2,93.2 L306.4,96.0 L309.6,98.8 L312.8,101.4 L316.0,103.7 L319.2,105.8 L322.4,107.6 L325.6,109.1 L328.8,110.2 L332.0,111.0 L335.2,111.4 L338.4,111.7 L341.6,111.7 L344.8,111.5 L348.0,111.2 L351.2,110.8 L354.4,110.4 L357.6,109.9 L360.8,109.4 L364.0,108.9 L367.2,108.5 L370.4,108.1 L373.6,107.7 L376.8,107.5 L380.0,107.2 L383.2,107.1 L386.4,107.0 L389.6,106.9 L392.8,106.9 L396.0,106.9 L399.2,107.0 L402.4,107.0 L405.6,107.1 L408.8,107.2 L412.0,107.3 L415.2,107.4 L418.4,107.5 L421.6,107.5 L424.8,107.6 L428.0,107.7 L431.2,107.7 L434.4,107.7 L437.6,107.8 L440.8,107.8 L444.0,107.8 L447.2,107.8 L450.4,107.8 L453.6,107.7 L456.8,107.7 L460.0,107.7 L463.2,107.7 L466.4,107.7 L469.6,107.7 L472.8,107.7 L476.0,107.6 L479.2,107.6 L482.4,107.6 L485.6,107.6 L488.8,107.6 L492.0,107.6 L495.2,107.6 L498.4,107.6 L501.6,107.6 L504.8,107.6 L508.0,107.6 L511.2,107.6 L514.4,107.6 L517.6,107.6 L520.8,107.6 L524.0,107.6 L527.2,107.6 L530.4,107.6 L533.6,107.6 L536.8,107.6 L540.0,107.6 L543.2,107.6 L546.4,107.6 L549.6,107.6 L552.8,107.6 L556.0,107.6 L559.2,107.6 L562.4,107.6 L565.6,107.6 L568.8,107.6 L572.0,107.6 L575.2,107.6 L578.4,107.6 L581.6,107.6 L584.8,107.6 L588.0,107.6 L591.2,107.6 L594.4,107.6 L597.6,107.6 L600.8,107.6 L604.0,107.6 L607.2,107.6 L610.4,107.6 L613.6,107.6 L616.8,107.6 L620.0,107.6 L623.2,107.6 L626.4,107.6 L629.6,107.6 L632.8,107.6 L636.0,107.6 L639.2,107.6 L642.4,107.6 L645.6,107.6 L648.8,107.6 L652.0,107.6 L655.2,107.6 L658.4,107.6 L661.6,107.6 L664.8,107.6 L668.0,107.6 L671.2,107.6 L674.4,107.6 L677.6,107.6 L680.8,107.6 L684.0,107.6 L687.2,107.6 L690.4,107.6 L693.6,107.6 L696.8,107.6 L700.0,107.6 L703.2,107.6 L706.4,107.6 L709.6,107.6 L712.8,107.6 L716.0,107.6 L719.2,107.6 L722.4,107.6 L725.6,107.6 L728.8,107.6 L732.0,107.6 L735.2,107.6 L738.4,107.6 L741.6,107.6 L744.8,107.6 L748.0,107.6 L751.2,107.6 L754.4,107.6 L757.6,107.6 L760.8,107.6 L764.0,107.6 L767.2,107.6 L770.4,107.6 L773.6,107.6 L776.8,107.6 L780.0,107.6 L783.2,107.6 L786.4,107.6 L789.6,107.6 L792.8,107.6 L796.0,107.6 L799.2,107.6 L802.4,107.6 L805.6,107.6 L808.8,107.6 L812.0,107.6 L815.2,107.6 L818.4,107.6 L821.6,107.6 L824.8,107.6 L828.0,107.6 L831.2,107.6 L834.4,107.6 L837.6,107.6 L840.8,107.6 L844.0,107.6 L847.2,107.6 L850.4,107.6 L853.6,107.6 L856.8,107.6 L860.0,107.6 L863.2,107.6 L866.4,107.6 L869.6,107.6 L872.8,107.6 L876.0,107.6" fill="none" stroke="#dc2626" stroke-width="2.5"/>
<path d="M76.0,411.7 L79.2,411.9 L82.4,412.1 L85.6,412.2 L88.8,412.4 L92.0,412.5 L95.2,412.6 L98.4,412.8 L101.6,412.9 L104.8,412.9 L108.0,413.0 L111.2,413.0 L114.4,413.1 L117.6,413.1 L120.8,413.0 L124.0,413.0 L127.2,412.9 L130.4,412.9 L133.6,412.8 L136.8,412.6 L140.0,412.5 L143.2,412.4 L146.4,412.2 L149.6,412.1 L152.8,411.9 L156.0,411.7 L159.2,411.6 L162.4,411.4 L165.6,411.3 L168.8,411.1 L172.0,411.0 L175.2,410.8 L178.4,410.7 L181.6,410.6 L184.8,410.6 L188.0,410.5 L191.2,410.5 L194.4,410.4 L197.6,410.4 L200.8,410.5 L204.0,410.5 L207.2,410.6 L210.4,410.6 L213.6,410.7 L216.8,410.8 L220.0,411.0 L223.2,411.1 L226.4,411.3 L229.6,411.4 L232.8,411.6 L236.0,285.0 L239.2,288.0 L242.4,295.9 L245.6,307.6 L248.8,321.8 L252.0,337.4 L255.2,353.5 L258.4,369.3 L261.6,384.1 L264.8,397.5 L268.0,409.1 L271.2,418.9 L274.4,426.7 L277.6,432.6 L280.8,436.6 L284.0,439.0 L287.2,440.0 L290.4,439.8 L293.6,438.6 L296.8,436.6 L300.0,434.2 L303.2,431.4 L306.4,428.6 L309.6,425.7 L312.8,423.0 L316.0,420.5 L319.2,418.3 L322.4,416.5 L325.6,415.0 L328.8,413.9 L332.0,413.0 L335.2,412.5 L338.4,412.3 L341.6,412.3 L344.8,412.4 L348.0,412.8 L351.2,413.2 L354.4,413.7 L357.6,414.2 L360.8,414.7 L364.0,415.2 L367.2,415.6 L370.4,416.0 L373.6,416.4 L376.8,416.7 L380.0,416.9 L383.2,417.1 L386.4,417.2 L389.6,417.2 L392.8,417.2 L396.0,417.2 L399.2,417.2 L402.4,417.1 L405.6,417.0 L408.8,416.9 L412.0,416.8 L415.2,416.7 L418.4,416.6 L421.6,416.6 L424.8,416.5 L428.0,416.5 L431.2,416.4 L434.4,416.4 L437.6,416.4 L440.8,416.3 L444.0,416.3 L447.2,416.3 L450.4,416.4 L453.6,416.4 L456.8,416.4 L460.0,416.4 L463.2,416.4 L466.4,416.4 L469.6,416.4 L472.8,416.5 L476.0,416.5 L479.2,416.5 L482.4,416.5 L485.6,416.5 L488.8,416.5 L492.0,416.5 L495.2,416.5 L498.4,416.5 L501.6,416.5 L504.8,416.5 L508.0,416.5 L511.2,416.5 L514.4,416.5 L517.6,416.5 L520.8,416.5 L524.0,416.5 L527.2,416.5 L530.4,416.5 L533.6,416.5 L536.8,416.5 L540.0,416.5 L543.2,416.5 L546.4,416.5 L549.6,416.5 L552.8,416.5 L556.0,416.5 L559.2,416.5 L562.4,416.5 L565.6,416.5 L568.8,416.5 L572.0,416.5 L575.2,416.5 L578.4,416.5 L581.6,416.5 L584.8,416.5 L588.0,416.5 L591.2,416.5 L594.4,416.5 L597.6,416.5 L600.8,416.5 L604.0,416.5 L607.2,416.5 L610.4,416.5 L613.6,416.5 L616.8,416.5 L620.0,416.5 L623.2,416.5 L626.4,416.5 L629.6,416.5 L632.8,416.5 L636.0,416.5 L639.2,416.5 L642.4,416.5 L645.6,416.5 L648.8,416.5 L652.0,416.5 L655.2,416.5 L658.4,416.5 L661.6,416.5 L664.8,416.5 L668.0,416.5 L671.2,416.5 L674.4,416.5 L677.6,416.5 L680.8,416.5 L684.0,416.5 L687.2,416.5 L690.4,416.5 L693.6,416.5 L696.8,416.5 L700.0,416.5 L703.2,416.5 L706.4,416.5 L709.6,416.5 L712.8,416.5 L716.0,416.5 L719.2,416.5 L722.4,416.5 L725.6,416.5 L728.8,416.5 L732.0,416.5 L735.2,416.5 L738.4,416.5 L741.6,416.5 L744.8,416.5 L748.0,416.5 L751.2,416.5 L754.4,416.5 L757.6,416.5 L760.8,416.5 L764.0,416.5 L767.2,416.5 L770.4,416.5 L773.6,416.5 L776.8,416.5 L780.0,416.5 L783.2,416.5 L786.4,416.5 L789.6,416.5 L792.8,416.5 L796.0,416.5 L799.2,416.5 L802.4,416.5 L805.6,416.5 L808.8,416.5 L812.0,416.5 L815.2,416.5 L818.4,416.5 L821.6,416.5 L824.8,416.5 L828.0,416.5 L831.2,416.5 L834.4,416.5 L837.6,416.5 L840.8,416.5 L844.0,416.5 L847.2,416.5 L850.4,416.5 L853.6,416.5 L856.8,416.5 L860.0,416.5 L863.2,416.5 L866.4,416.5 L869.6,416.5 L872.8,416.5 L876.0,416.5" fill="none" stroke="#7c3aed" stroke-width="2.5"/>
<path d="M76.0,640.0 L79.2,640.0 L82.4,640.0 L85.6,640.0 L88.8,640.0 L92.0,640.0 L95.2,640.0 L98.4,640.0 L101.6,640.0 L104.8,640.0 L108.0,640.0 L111.2,640.0 L114.4,640.0 L117.6,640.0 L120.8,640.0 L124.0,640.0 L127.2,640.0 L130.4,640.0 L133.6,640.0 L136.8,640.0 L140.0,640.0 L143.2,640.0 L146.4,640.0 L149.6,640.0 L152.8,640.0 L156.0,640.0 L159.2,640.0 L162.4,640.0 L165.6,640.0 L168.8,640.0 L172.0,640.0 L175.2,640.0 L178.4,640.0 L181.6,640.0 L184.8,640.0 L188.0,640.0 L191.2,640.0 L194.4,640.0 L197.6,640.0 L200.8,640.0 L204.0,640.0 L207.2,640.0 L210.4,640.0 L213.6,640.0 L216.8,640.0 L220.0,640.0 L223.2,640.0 L226.4,640.0 L229.6,640.0 L232.8,640.0 L236.0,485.0 L239.2,485.0 L242.4,485.0 L245.6,485.0 L248.8,485.0 L252.0,485.0 L255.2,485.0 L258.4,485.0 L261.6,485.0 L264.8,485.0 L268.0,485.0 L271.2,485.0 L274.4,485.0 L277.6,485.0 L280.8,485.0 L284.0,485.0 L287.2,485.0 L290.4,485.0 L293.6,485.0 L296.8,485.0 L300.0,485.0 L303.2,485.0 L306.4,485.0 L309.6,485.0 L312.8,485.0 L316.0,485.0 L319.2,485.0 L322.4,485.0 L325.6,485.0 L328.8,485.0 L332.0,485.0 L335.2,485.0 L338.4,485.0 L341.6,485.0 L344.8,485.0 L348.0,485.0 L351.2,485.0 L354.4,485.0 L357.6,485.0 L360.8,485.0 L364.0,485.0 L367.2,485.0 L370.4,485.0 L373.6,485.0 L376.8,485.0 L380.0,485.0 L383.2,485.0 L386.4,485.0 L389.6,485.0 L392.8,485.0 L396.0,485.0 L399.2,485.0 L402.4,485.0 L405.6,485.0 L408.8,485.0 L412.0,485.0 L415.2,485.0 L418.4,485.0 L421.6,485.0 L424.8,485.0 L428.0,485.0 L431.2,485.0 L434.4,485.0 L437.6,485.0 L440.8,485.0 L444.0,485.0 L447.2,485.0 L450.4,485.0 L453.6,485.0 L456.8,485.0 L460.0,485.0 L463.2,485.0 L466.4,485.0 L469.6,485.0 L472.8,485.0 L476.0,485.0 L479.2,485.0 L482.4,485.0 L485.6,485.0 L488.8,485.0 L492.0,485.0 L495.2,485.0 L498.4,485.0 L501.6,485.0 L504.8,485.0 L508.0,485.0 L511.2,485.0 L514.4,485.0 L517.6,485.0 L520.8,485.0 L524.0,485.0 L527.2,485.0 L530.4,485.0 L533.6,485.0 L536.8,485.0 L540.0,485.0 L543.2,485.0 L546.4,485.0 L549.6,485.0 L552.8,485.0 L556.0,485.0 L559.2,485.0 L562.4,485.0 L565.6,485.0 L568.8,485.0 L572.0,485.0 L575.2,485.0 L578.4,485.0 L581.6,485.0 L584.8,485.0 L588.0,485.0 L591.2,485.0 L594.4,485.0 L597.6,485.0 L600.8,485.0 L604.0,485.0 L607.2,485.0 L610.4,485.0 L613.6,485.0 L616.8,485.0 L620.0,485.0 L623.2,485.0 L626.4,485.0 L629.6,485.0 L632.8,485.0 L636.0,485.0 L639.2,485.0 L642.4,485.0 L645.6,485.0 L648.8,485.0 L652.0,485.0 L655.2,485.0 L658.4,485.0 L661.6,485.0 L664.8,485.0 L668.0,485.0 L671.2,485.0 L674.4,485.0 L677.6,485.0 L680.8,485.0 L684.0,485.0 L687.2,485.0 L690.4,485.0 L693.6,485.0 L696.8,485.0 L700.0,485.0 L703.2,485.0 L706.4,485.0 L709.6,485.0 L712.8,485.0 L716.0,485.0 L719.2,485.0 L722.4,485.0 L725.6,485.0 L728.8,485.0 L732.0,485.0 L735.2,485.0 L738.4,485.0 L741.6,485.0 L744.8,485.0 L748.0,485.0 L751.2,485.0 L754.4,485.0 L757.6,485.0 L760.8,485.0 L764.0,485.0 L767.2,485.0 L770.4,485.0 L773.6,485.0 L776.8,485.0 L780.0,485.0 L783.2,485.0 L786.4,485.0 L789.6,485.0 L792.8,485.0 L796.0,485.0 L799.2,485.0 L802.4,485.0 L805.6,485.0 L808.8,485.0 L812.0,485.0 L815.2,485.0 L818.4,485.0 L821.6,485.0 L824.8,485.0 L828.0,485.0 L831.2,485.0 L834.4,485.0 L837.6,485.0 L840.8,485.0 L844.0,485.0 L847.2,485.0 L850.4,485.0 L853.6,485.0 L856.8,485.0 L860.0,485.0 L863.2,485.0 L866.4,485.0 L869.6,485.0 L872.8,485.0 L876.0,485.0" fill="none" stroke="#059669" stroke-width="2.5"/>
<text x="76" y="68" font-family="Arial" font-size="13" fill="#2563eb">command</text>
<text x="164" y="68" font-family="Arial" font-size="13" fill="#dc2626">measured</text>
<text x="420.0" y="680" font-family="Arial" font-size="14" fill="#334155">time (s)</text>
</svg>
